<?xml version="1.0" encoding="UTF-8"?>
<svg id="Layer_1" data-name="Layer 1" xmlns="http://www.w3.org/2000/svg" viewBox="0 0 100 100">
  <defs>
    <style>
      .cls-1 {
        fill: #af3567;
      }

      .cls-2 {
        fill: #f2f2f2;
      }
    </style>
  </defs>
  <rect class="cls-1" width="100" height="100"/>
  <g>
    <path class="cls-2" d="M10.75,52.94c1.07-.62,2.18-1.08,3.22-1.5,3.88-1.56,8.02-2.23,12.31-1.99,2.54,.14,5.19,.61,8.09,1.44,2.82,.81,5.76,1.9,9.52,3.53,1.67,.73,3.35,1.5,4.97,2.24,2.27,1.04,4.62,2.11,6.97,3.09,3.91,1.62,6.97,2.6,9.93,3.17,1.72,.33,3.34,.5,4.9,.5,1.04,0,2.06-.07,3.05-.22,2.62-.39,5.1-1.34,7.36-2.81,1.94-1.27,3.71-2.93,5.72-5.38v-.02c.05-.04,.13-.13,.03-.24h-.01s-.02-.01-.02-.01c-.14,0-.21,.08-.28,.16-.02,.02-.03,.04-.05,.06-1.13,1.14-2.46,2.2-4.07,3.26-3.26,2.14-6.81,3.19-10.57,3.14-2.07-.03-4.28-.38-6.76-1.07-3.45-.96-6.78-2.4-9.63-3.67-1.08-.48-2.17-.98-3.23-1.47-.81-.37-1.65-.76-2.47-1.13-2.03-.92-4.45-1.99-6.97-2.99q-.4-.16-.4-.57v-5.58c0-8.68,0-17.36,0-26.03,0-.35,.03-.67,.08-.98,.1-.59,.31-.81,.9-.95,.73-.18,1.5-.2,2.23-.23h.16c1.76-.07,3.33,.14,4.8,.66,3.77,1.31,6.58,3.94,8.35,7.82,.74,1.61,1.18,3.39,1.36,5.44,.15,1.72,.25,3.99-.26,6.27-.74,3.32-2.4,6.08-4.91,8.22-1.29,1.09-2.71,1.88-4.23,2.34-.75,.22-1.55,.34-2.37,.34h-.09c-.55,0-1.13,0-1.67,.22-.47,.18-.71,.5-.68,.9,.03,.37,.3,.64,.76,.77,.45,.13,.94,.18,1.59,.19,2.07,.03,3.94-.14,5.74-.52,4.85-1.02,8.83-3.33,11.82-6.88,3.62-4.28,5.26-9.47,4.88-15.42-.18-2.75-1.24-5.42-3.17-7.93-1.65-2.15-3.88-3.72-6.81-4.8-2.59-.95-5.51-1.48-8.93-1.62-1.95-.08-3.93-.03-5.84,.02-1.01,.02-2.03,.06-3.02,.09-1.68,.05-3.42,.1-5.13,.13-1.51,.02-3.05-.03-4.54-.08-.8-.03-1.63-.05-2.45-.07-.52-.01-1.06-.02-1.6-.04-2.16-.07-3.96-.09-5.67-.06-.25,0-.51,.05-.77,.15-.38,.14-.59,.39-.59,.72,0,.34,.17,.59,.54,.76,.16,.08,.33,.1,.49,.13,.4,.05,.81,.05,1.21,.05,.25,0,.52,0,.77,.01,1.02,.06,2.1,.16,3.17,.54,1.25,.45,2,1.28,2.3,2.53,.17,.69,.27,1.4,.3,2.11,.1,2.18,.15,4.43,.15,6.71,0,3.86,0,7.72,0,11.58v6.19c0,1.11,0,2.22,0,3.33,0,.15,0,.27-.04,.3-.03,.03-.14,.01-.31-.01-.93-.14-1.94-.23-3.18-.28-1.05-.04-2.09-.02-3.08,.06-1.58,.12-3.17,.37-4.72,.76-2.95,.73-5.81,2.05-9,4.16-.01,0-.03,.02-.05,.03-.1,.06-.25,.15-.22,.42v.07s.07-.04,.07-.04Z"/>
    <path class="cls-2" d="M51.7,78.11c-.28-.13-.59-.14-.89-.15h-.05c-1.81-.06-3.33-.16-4.87-.42-.9-.15-1.58-.54-2.06-1.18-.51-.67-.7-1.45-.81-2.06-.31-1.71-.4-3.46-.48-5.16-.01-.28-.03-.56-.04-.84-.04-.77-.04-1.56-.04-2.32,0-.38,0-.76,0-1.15,0-.34-.01-.69-.02-1.03,0-.51-.02-1.04-.02-1.56,0-.3-.11-.45-.38-.53-.15-.04-.31-.1-.45-.16-.07-.03-.14-.06-.21-.08-3.37-1.27-6.48-2.2-9.52-2.85-.27-.06-.41-.09-.5-.02-.08,.07-.08,.21-.08,.48,0,1.24,0,2.49,0,3.57v1.1s-.05,1.65-.05,1.65c-.03,1.08-.06,2.03-.09,2.98-.04,1.47-.12,3.4-.42,5.31-.13,.81-.3,1.67-.66,2.47-.38,.83-1.01,1.31-1.93,1.47-1.06,.18-2.13,.29-3.16,.31-.29,0-.59,.02-.87,.17-.23,.12-.37,.3-.41,.51-.04,.21,.03,.43,.2,.62,.14,.16,.33,.28,.58,.35,.27,.08,.57,.12,.9,.12,.01,0,.03,0,.04,0,.37,0,.74,0,1.11,0,.83,0,1.68,0,2.52-.03,.8-.02,1.6-.05,2.39-.08,1.65-.06,3.36-.12,5.04-.12,1.29,0,2.6,.04,3.87,.07,.54,.01,1.09,.03,1.63,.04,.58,.01,1.15,.02,1.73,.04,1.13,.02,2.3,.05,3.45,.07,1.19,.02,2.39,.02,3.52,.01,.48,0,.86-.11,1.17-.34,.25-.18,.38-.43,.35-.67-.02-.24-.2-.46-.48-.59Z"/>
    <path class="cls-2" d="M94.61,46.22c-.81-3.17-2.75-5.53-5.77-7.02-2.59-1.28-5.46-1.74-8.76-1.41-3.97,.39-7.6,1.82-10.78,4.25l-.08,.06c-.76,.58-1.54,1.18-2.15,1.95-.03,.02-.08,.05-.09,.12-.03,.02-.06,.05-.06,.08-.87,.8-1.5,1.64-1.59,2.13l-.03,.16,.11-.12c.33-.36,.64-.71,.95-1.05l.71-.79c.07-.04,.16-.1,.19-.22,.03-.02,.05-.04,.08-.06,.03-.03,.06-.05,.09-.07h.01c.22-.3,.53-.51,.82-.7,.12-.08,.24-.16,.35-.24,4.12-3.05,8.74-4.43,13.73-4.11,2.08,.14,3.96,.66,5.61,1.55,2.18,1.18,3.64,2.88,4.34,5.06,.51,1.59,.6,3.32,.26,5.26-.78,4.55-3.02,8.35-6.64,11.29-2.42,1.96-5.3,3.31-8.56,4.01h0c-3.3,.91-6.7,.7-10.17-.08-.9-.2-2.29-.59-3.46-.93l-.41-.12-.39-.12-.35-.11h-.02c-.56-.17-.94-.28-.96-.28-.3-.11-.63-.22-1.01-.36-1.31-.48-2.62-.99-3.88-1.51-.03-.01-.05-.02-.08-.04h-.02c-1.37-.57-2.69-1.13-3.91-1.66l-.76-.33c-2.86-1.24-5.81-2.52-8.78-3.64-2.8-1.06-5.18-1.82-7.48-2.41-2.41-.61-4.83-1.05-7.19-1.29-2.05-.22-3.87-.26-5.56-.14-2.24,.16-4.41,.63-6.44,1.39-3.35,1.27-5.9,3.02-7.82,5.36-3.1,3.78-4.25,8.12-3.41,12.9,.84,4.81,3.44,8.64,7.73,11.37,2.68,1.71,5.73,2.66,9.31,2.93,.59,.04,1.19,.06,1.79,.06,1.73,0,3.51-.18,5.39-.54,2.83-.55,5.64-1.44,8.58-2.75,1.43-.63,2.97-1.39,4.83-2.38,.03-.02,.07-.03,.1-.05,.16-.07,.34-.15,.41-.39l.02-.06h-.06c-.2,0-.34,.07-.47,.14-.03,.02-.06,.04-.09,.05-1.35,.66-2.7,1.25-4.03,1.74-4.18,1.57-7.94,2.44-11.51,2.65-3.06,.18-5.7-.07-8.05-.75-3.63-1.06-6.39-2.83-8.44-5.43-2.64-3.35-3.64-7.12-2.96-11.21,.65-3.98,2.82-7.1,6.46-9.27,2.7-1.61,5.74-2.47,9.29-2.63,1.94-.08,4.02,.06,6.57,.46,2.69,.42,5.47,1.11,8.52,2.12,3.89,1.29,7.71,2.93,11.09,4.38,.34,.14,.67,.29,1,.43,.17,.07,.37,.16,.6,.26,.23,.1,.48,.21,.75,.33,.14,.06,.29,.12,.43,.18,1.26,.55,2.91,1.25,4.72,1.95,.67,.26,1.37,.53,2.08,.78,1.88,.68,3.84,1.32,5.65,1.75,1.22,.3,2.39,.5,3.4,.57,.18,.02,.35,.02,.52,.03h.08c1.24,.15,2.45,.22,3.64,.19,.58,.03,1.12,.04,1.7,0h0c1.65-.09,3.59-.55,7.72-2,.03-.01,.05-.02,.07-.03,0,0,.02,0,.04-.02,.03-.01,.06-.03,.11-.05,.05-.02,.11-.05,.17-.08,.17-.08,.39-.18,.65-.3,.12-.05,.23-.11,.35-.17,.52-.25,1.12-.54,1.64-.81,.54-.29,1.01-.56,1.24-.74,0,0,.02-.01,.02-.02,.2-.16,.4-.34,.59-.51,.19-.12,.59-.55,.59-.55,.17-.17,.32-.32,.43-.43,.05-.05,.09-.08,.12-.12,.79-.7,1.53-1.48,2.22-2.31,.38-.46,.75-.94,1.09-1.43,.02-.03,.04-.06,.06-.08,.4-.56,.8-1.16,1.14-1.81,.13-.25,.26-.5,.37-.76,.02-.03,.03-.06,.04-.08,.02-.03,.03-.06,.04-.09,.86-1.79,1.46-3.73,1.78-5.77,.32-2,.25-3.81-.19-5.53Z"/>
  </g>
</svg>